<?xml version="1.0" encoding="iso-8859-1"?>
<!-- Generator: Adobe Illustrator 19.0.0, SVG Export Plug-In . SVG Version: 6.00 Build 0)  -->
<svg xmlns="http://www.w3.org/2000/svg" xmlns:xlink="http://www.w3.org/1999/xlink" version="1.1" id="Capa_1" x="0px" y="0px" viewBox="0 0 512 512" style="enable-background:new 0 0 512 512;" xml:space="preserve" width="512px" height="512px">
<g>
	<g>
		<path d="M502,209.073h-7.041V165.5c0-5.523-4.477-10-10-10h-96c-5.523,0-10,4.477-10,10v43.573H353V91.645c0-5.523-4.477-10-10-10    h-11V38.073c0-5.523-4.477-10-10-10h-96c-5.523,0-10,4.477-10,10v43.572h-51V38.073c0-5.523-4.477-10-10-10H59    c-5.523,0-10,4.477-10,10v43.572H39c-5.523,0-10,4.477-10,10v127.428c0,5.523,4.477,10,10,10h44c5.523,0,10-4.477,10-10    s-4.477-10-10-10H49V101.645h284v107.428H198h-23.955c-5.523,0-10,4.477-10,10s4.477,10,10,10H188V336.5h-50v-43.572    c0-5.522-4.477-10-10-10H32c-5.523,0-10,4.478-10,10V336.5H10c-5.523,0-10,4.478-10,10v127.428c0,5.522,4.477,10,10,10h492    c5.523,0,10-4.478,10-10V346.5V219.073C512,213.549,507.523,209.073,502,209.073z M145,81.645H69V48.073h76V81.645z M312,81.645    h-76V48.073h76V81.645z M398.959,175.5h76v33.573h-76V175.5z M42,302.927h76V336.5H42V302.927z M492,423.667H385.291    c-5.523,0-10,4.478-10,10c0,5.522,4.477,10,10,10H492v20.261H20v-0.001V356.5h472V423.667z M492,336.5H208V229.073h135h45.959h96    H492V336.5z" fill="#D80027"/>
	</g>
</g>
<g>
	<g>
		<path d="M135.07,211.998c-1.86-1.86-4.44-2.93-7.07-2.93s-5.21,1.07-7.07,2.93c-1.86,1.86-2.93,4.44-2.93,7.07    c0,2.64,1.07,5.21,2.93,7.07c1.86,1.87,4.44,2.93,7.07,2.93c2.63,0.001,5.21-1.059,7.07-2.93c1.86-1.86,2.93-4.43,2.93-7.07    C138,216.438,136.93,213.859,135.07,211.998z" fill="#D80027"/>
	</g>
</g>
<g>
	<g>
		<path d="M350.57,426.599c-1.86-1.871-4.44-2.93-7.07-2.93s-5.21,1.06-7.07,2.93c-1.86,1.86-2.93,4.431-2.93,7.07    c0,2.63,1.07,5.21,2.93,7.07c1.86,1.859,4.44,2.93,7.07,2.93s5.21-1.07,7.07-2.93s2.93-4.44,2.93-7.07    C353.5,431.029,352.43,428.46,350.57,426.599z" fill="#D80027"/>
	</g>
</g>
<g>
</g>
<g>
</g>
<g>
</g>
<g>
</g>
<g>
</g>
<g>
</g>
<g>
</g>
<g>
</g>
<g>
</g>
<g>
</g>
<g>
</g>
<g>
</g>
<g>
</g>
<g>
</g>
<g>
</g>
</svg>
